<svg xmlns="http://www.w3.org/2000/svg" width="200" height="200" viewBox="0 0 200 200">
    <style>path{stroke-miterlimit:10 !important}</style>
    <path d="m184.7 133.3c-3.85 9.3-4.7 9.83-12.05 13.33 13.07-15.31 14.35-32.25 3.12-53.81 1.1 5.76 1.21 8.47 0.16 14.28-1.51-14.6-5.8-22.22-24.68-34.1l3.64 6.8c-6.99-6.27-14.49-13.78-13.23-23.17 0.74-5.64 4.81-8.88 8.41-8.1 4.87 1.11 4.87 6.22 1.44 8.39-1.93 1.16-3.65 0.44-5.21-2.16-0.75 4.38 1.21 8.19 6.75 10.56 4.15 1.81 8.62 1.41 12.98-0.1-2.74 3.89-5.38 4.9-8.61 6.01 13.61 0 25.23-10.95 25.23-23.81 0-11.38-5.74-20.65-12.83-25.59l12 10.29c-6.05-15.65-19.7-26.35-37.06-25.8-11.01 0.37-16.31 2.08-24.69 6.49 4.28-5.01 8.89-6.63 15.1-8.11-18.11 0.74-34.07 9.4-40.12 25.48l2.64-6.75c-8.75 11.68-8.39 24.22-4.36 37.67-4.18-3.98-4.39-7.03-5.08-16.37-3 12.45 0.26 32.69 19.15 52.13-12.04-1.07-18.25-6.11-21.5-13.94-2.14-5.33-2.78-8.15-5.67-11.5 4.67-10.42 0.72-16.15-0.18-23.77-0.3-2.73 0.17-6.38 3.66-12.86l-5.85 6.65-1.21-9.52c-1.56 6.32-2.77 8.08-8.62 14.35-5.16 5.12-6.85 8.45-8.36 12.85-5.15-0.82-8.25-0.77-16.85 0.31l-3.48-13.16c-0.54-2.98 0.41-6.27 1.62-10.65l-5.1 7.15-0.15-9.34-1.94 7.57c-1.26 3.12-5.21 7.29-6.42 12.73-0.68 3.19-0.68 8.09 0.16 13.66-4.35 6.03-10.4 11.88-11.29 15.33-0.99 3.87 0.47 8.05 0.47 12.28 0 3.99-2.48 9.99-1.79 15.22 0.64 5 4.12 8.7 7.17 9.97 3.29 1.34 4.39 4.05 10.08 4.93 4.61 0.7 6.8 0 10.04 0 2.64 1.47 1.27 7.74-2.22 12.95l2.06-0.93c-4.72 7.05-6.38 11.84-5.74 20.79 0.64 8.12 8.86 17.17 18.06 18.23l-0.69-2.95 1.57 1.86 4.56 6.33 2.19 2.51-0.58-3.74c3.79 5.01 6.43 8 11.35 10.82l-3.19-8.95c7.35 11.01 16.55 14.01 28.59 13.28 10.71-0.68 19.22-2.5 32.08-13.7 12.86 4.63 28.56-0.83 39.27-13.03-4.56 2.17-6.55 2.49-12.87 1.61 14.62-4.58 25.33-17.03 28.07-36.9z"
          style="fill:#1A1008 !important;stroke:#1A1008 !important;stroke-width:.5 !important"/>
    <path d="m29.21 67.04c-1.09-6.9-0.72-13.23 3.83-20.07l4.06-5.98 0.91-5.38 1.13-1.85c-1.79 5.01-2.04 10.23-1.46 13.35l3.24 12.6c-4.41 1.1-7.99 3.32-11.71 7.33z"
          style="fill:#1E1209 !important;stroke:#1A1008 !important;stroke-width:.5 !important"/>
    <path d="m100.1 26.98c7.3-11.24 17.49-15.92 18.74-16.33-7.04 6.27-11.75 12.97-13.07 25.57 6.37-13.16 20.83-27.63 42.93-27.09 9.49 0.25 18.53 5.63 22.43 9.63-7.96-5.28-15.2-7-24-5.24l-7.14 1.01 7.65-0.44c-13.44 2.22-27.45 5.92-36.84 19.62-3.6 4.85-5.74 8.46-7.68 15.21-1.1-11.29 0-16.76 5.26-28.86-6.47 7.1-13.46 18.24-11.08 34.97-4.03-10.79-1.84-20.35 2.8-28.05z"
          style="fill:#422A14 !important;stroke:#1A1008 !important;stroke-width:.5 !important"/>
    <path d="m102.7 51.12c2.2-15.92 13.87-26.97 25.54-28.37-9.39 8.71-11.59 16.78-9.7 30.43-5.1-9.97-2.05-19.16-2.05-19.16s-9.99 9.72-8.83 24.87c0.89 12.33 5.5 21.13 17.81 29.15l0.31 4.09c-11.86-5.89-25.73-18.97-23.08-41.01z"
          style="fill:#A07C4E !important;stroke:#1A1008 !important;stroke-width:.5 !important"/>
    <path d="m122.1 58.89c-8.69-12.53-3.7-28.56 7.58-38.11 2.49-2.27 5.49-3.2 8.18-3.69-13.75 1.06-27.98 11.96-28.51 27.11-0.31 8.96 4.06 15.47 11.65 20.91-2.13-1.01-3.18-1.5-5.01-2.37 1.72 3.22 2.88 4.54 2.19 8.09-0.47 2.58-2.72 3.79-2.72 3.79 1.93 2.37 4.27 2.67 5.69-0.5 1.37-3.24 0.06-6.99-3.08-10.21 3.08 0.54 6.78 2.3 10.51 4.52-2.84-4.32-4.68-6.62-6.48-9.54z"
          style="fill:#553219 !important;stroke:#1A1008 !important;stroke-width:.5 !important"/>
    <path d="m147.7 11.96c-14.01 1.05-33.11 10.95-35.6 23.65 4.12-7.72 13.31-13.84 27.63-15.6 8.37-5.91 18.19-6.15 27.1-3.09-5-3.91-9.91-5.56-19.13-4.96z"
          style="fill:#5C3A1E !important;stroke:#1A1008 !important;stroke-width:.5 !important"/>
    <path d="m178.6 44.19c-1.37-12.9-12.32-25.38-26.6-26.25-13.03-0.82-27.86 10.19-28.07 27.71-0.16 9.5 2.98 16.36 9.51 22.47-5.04-9.78-3.42-19.01 4.96-23.01 6.42-3.04 11.47-0.92 13.71 1-5.31-4.09-14.06-4.53-18.67 0 3.84-7.86 11.64-9.2 17.96-7.3 6.21 1.95 7.01 8.97 6.58 11.2 1.26-5.16-0.83-11-7.2-13.89 7.36-0.2 12.02 5.6 13.18 10.34-0.26-9.1-10.14-15.37-19.72-13.76-11.82 2.07-15.47 12.12-16.16 16.41 0.32-13.45 9.97-19.19 19.01-18.99 10.71 0.2 18.93 9.82 19.51 18.5 0.42 6.32-4.53 11.49-8.99 11.09 2.95-2.82 4.67-6.31 3.98-12.59 5.21 4.59 2.42 13.99-5.59 16.35-3.24 0.97-7.19-1.25-8.29-3.31 1.42 4.8 7.57 7.07 12.29 5.85 8.48-2.32 12.27-9.69 10.23-19.8l-1.32-5.43c7.8 6.27 5.77 18.1 0.11 25.23 6.8-3.84 10.8-11.15 9.58-21.82z"
          style="fill:#8B6540 !important;stroke:#1A1008 !important;stroke-width:.5 !important"/>
    <path d="m157.5 26.2c3.48-0.3 5.67 0.61 9.15 2.55-2.64-0.34-5.08-0.76-9.15-2.55z"
          style="fill:#C49A6C !important;stroke:#1A1008 !important;stroke-width:.5 !important"/>
    <path d="m163.8 31.05c3.14 0.59 5.38 1.7 8.18 4.12-2.8-0.68-4.68-1.56-8.18-4.12z"
          style="fill:#C49A6C !important;stroke:#1A1008 !important;stroke-width:.5 !important"/>
    <path d="m137.1 27.87c4.08-2.37 7.28-3.53 12.9-3.15 7.35 0.54 13.35 6.43 15.99 12.7-3.73-5.31-9.59-9.9-17.19-10.1-5.74-0.14-8.88 1.43-12.82 4.19l1.12-3.64z"
          style="fill:#C49A6C !important;stroke:#1A1008 !important;stroke-width:.5 !important"/>
    <path d="m92.98 68.52c2.24 4.85 4.43 7.92 13.96 11.81l-2.79-5.49c-4.86-1.12-7.9-2.93-11.17-6.32z"
          style="fill:#5C3A1E !important;stroke:#1A1008 !important;stroke-width:.5 !important"/>
    <path d="m103.8 82.04 5.69 2.27 1.05 5.38c-3.09-1.91-5.38-3.77-6.74-7.65z"
          style="fill:#A0785A !important;stroke:#1A1008 !important;stroke-width:.5 !important"/>
    <path d="m114 87.89 3.03 5.84 13.7 11c-7.04-4.58-13-9.17-16.73-16.84z"
          style="fill:#5C3A1E !important;stroke:#1A1008 !important;stroke-width:.5 !important"/>
    <path d="m157.4 81.85c7.2 5.43 12.61 14.43 12.3 27.54l-1.67-2.77c-1.76-7.21-4.8-15.37-10.63-24.77z"
          style="fill:#7A5230 !important;stroke:#1A1008 !important;stroke-width:.5 !important"/>
    <path d="m179.5 108.1c0 7.92-4.5 19.46-8.36 24.05 2.04-4.59 3.49-8.14 4.8-11.79 1.8-4.85 2.66-8.19 3.56-12.26z"
          style="fill:#7A5230 !important;stroke:#1A1008 !important;stroke-width:.5 !important"/>
    <path d="m171.3 116.5c0.85 7.01-1.28 18.01-7.55 27.4l0.58 2.22c6.86-10.23 9.56-20.81 6.97-29.62z"
          style="fill:#7A5230 !important;stroke:#1A1008 !important;stroke-width:.5 !important"/>
    <path d="m161 164.2c4.61-3.07 8.6-7.12 10.95-11.34l-6.21 1.61c4.56-4.38 7.6-6.9 11.33-9.89-4.05 10.08-9.46 16.11-16.07 19.62z"
          style="fill:#7A5230 !important;stroke:#1A1008 !important;stroke-width:.5 !important"/>
    <path d="m143.2 171.7c5.77 1.56 8.81 2.53 11.95 2.69-7.19 3.55-15.4 4.33-21.09 2.76 3.64-0.05 6.29-0.49 11.33-2.2l-2.19-3.25z"
          style="fill:#7A5230 !important;stroke:#1A1008 !important;stroke-width:.5 !important"/>
    <path d="m 60.06,64.05 c 1.15,-7.01 5.46,-13.02 9.77,-16.41 l 5.33,-5.33 c -0.9,4.1 1.59,7.84 2.75,11.41 1.56,5.16 1.72,9.75 -1.82,17.21 -1.15,2.64 1.04,6.29 -0.38,12.23 L 73.62,82.43 C 72.93,77.16 69.04,74.45 69.57,70.62 66.08,68.11 65.29,65.11 65.29,61.01 Z"
          style="fill:#553219 !important;stroke:#1a1008 !important;stroke-width:0.5 !important"/>
    <path d="m 75.11,45.71 c -4.95,5.51 -10.32,13.08 -8.5,22.41 l 1.22,4.43 c 1.42,-5.79 3.14,-10.94 6.33,-14.94 l -0.95,7.56 3.14,-5.06 c 1.21,-2.16 0.52,-9.85 -1.24,-14.4 z"
          style="fill:#6b4423 !important;stroke:#1a1008 !important;stroke-width:0.5 !important"/>
    <path d="m 128.4,69.82 c -4.62,16.53 0.52,34.47 9.37,43.67 3.04,3.22 5.74,5.34 9.03,7.1 l 1.47,-5.74 c -9.87,-7.1 -16.07,-17.8 -15.76,-36.94 5.43,2.93 11.04,7.98 13.79,13.4 l 3.6,0.82 C 146.41,82.14 138.71,74.99 128.4,69.82 Z"
          style="fill:#c49a6c !important;stroke:#1a1008 !important;stroke-width:0.5 !important"/>
    <path d="m 135.1,91.21 1.93,4.95 c 16.81,4.85 28.76,11.12 29.34,28.45 0.45,13.16 -11.13,28.5 -24.18,32 l -0.25,2.71 c 14.18,-3.89 27.68,-17.39 27.53,-34.91 C 169.26,107.23 158,96.28 135.1,91.21 Z"
          style="fill:#a67c52 !important;stroke:#1a1008 !important;stroke-width:0.5 !important"/>
    <path d="m 137.8,98.93 c 2.95,4.13 5.78,7.08 9.47,9.69 0.59,-3.89 0.25,-6.45 0.25,-6.45 1.56,1.11 3.13,2.08 4.69,2.95 1.57,11.01 -3.53,24.84 -9.2,32.41 l -1.27,-1.47 c 5.26,-8.34 6.78,-15.54 6.34,-23.15 -3.9,-3.5 -7.7,-7.29 -10.28,-13.98 z"
          style="fill:#97764A !important;stroke:#1a1008 !important;stroke-width:0.5 !important"/>
    <path d="m 154.9,120.3 -1.83,4.23 c 3.04,2.95 5.13,6.07 5.66,11.97 l 3.19,-6.42 c -0.69,-3.89 -3.13,-7.18 -7.02,-9.78 z"
          style="fill:#86624A !important;stroke:#1a1008 !important;stroke-width:0.5 !important"/>
    <path d="m 153.3,129.6 -1.89,2.59 -1.47,-1.11 c -1.15,6.71 -2.66,12.04 -4.9,17.31 4.4,-2.22 8.91,-6.6 10.78,-10.59 0.32,-3.65 0.16,-5.41 -2.52,-8.2 z"
          style="fill:#633D20 !important;stroke:#1a1008 !important;stroke-width:0.5 !important"/>
    <path d="m 163.2,146.8 c -7.04,8.26 -9.83,18.78 -24.74,21.8 v 1.61 c 13.61,-2.01 21.61,-11.62 24.74,-23.41 z"
          style="fill:#6b4c3b !important;stroke:#1a1008 !important;stroke-width:0.5 !important"/>
    <path d="m 93.35,95.14 c 5.26,8.31 11.1,12.04 21.76,16.79 l 1.1,2.98 c -9.43,-2.22 -18.1,-8.59 -24.05,-19.77 z"
          style="fill:#6b4423 !important;stroke:#1a1008 !important;stroke-width:0.5 !important"/>
    <path d="m 105,114.2 11.27,3.89 1.37,4.85 -3,-2.94 -1.88,0.67 2.29,9.21 -5.25,-1.01 c -0.36,-5.12 -1.57,-10.49 -4.8,-14.67 z"
          style="fill:#8b5e3c !important;stroke:#1a1008 !important;stroke-width:0.5 !important"/>
    <path d="m 104.2,135.2 c 4.56,-2.22 11.41,-2.32 17.56,1.17 6.98,4.04 13.35,10.61 15.07,19.27 l 1.47,-6.86 c -2.24,-11 -12.16,-18.01 -24.07,-18.01 h -5.28 z"
          style="fill:#6b4423 !important;stroke:#1a1008 !important;stroke-width:0.5 !important"/>
    <path d="m 116.1,104.2 c 11,4.96 21.81,13.91 22.73,42.12 -3.09,-12.29 -7.7,-21.14 -15.76,-26.3 l 5.2,1.11 c -1.36845,-1.47457 -3.24837,-2.72578 -4.97231,-3.51661 -1.05,-4.59 -3.41769,-9.52339 -10.76769,-15.20339 z"
          style="fill:#a0785a !important;stroke:#1a1008 !important;stroke-width:0.5 !important"/>
    <path d="m 40.15,156.4 c 0.63,-3.89 1.9,-8.48 4.09,-11.88 l -0.58,9.51 5.26,9 0.16,6.17 c -3.95,-2.46 -8,-6.6 -8.93,-12.8 z"
          style="fill:#6b4c3b !important;stroke:#1a1008 !important;stroke-width:0.5 !important"/>
    <path d="m 52.31,159.9 c -2.64,-6.27 -5.23,-13.13 -4.92,-21.15 l -1.57,6.22 1.05,-9.99 2.38,-4.13 -2.24,2.42 c -0.58,-4.33 -0.94,-6.1 -2.1,-9.16 l 6.1,-1.71 8.72,-0.82 c 6.71,-0.39 8.95,4.57 9.48,9.68 0.58,5.85 -1.96,7.46 -5.2,12.2 -3.54,4.59 -8.77,9.6 -11.7,16.44 z"
          style="fill:#B58B5F !important;stroke:#1a1008 !important;stroke-width:0.5 !important"/>
    <path d="m 68.89,160.8 c 1.05,-4.69 5.31,-5.3 9.21,-7.27 8.52,-4.13 18.34,-10.72 20.17,-18.79 1.36,-6.33 -1.58,-13.79 -9.64,-13.39 l 3.48,-3.08 4.5,-7.51 c 7.3,5.27 10.44,16.28 5.53,27.87 5.11,-2.46 12.91,-2.55 18.12,1.09 9.09,6.47 11.69,17.21 8.15,28.44 -4.26,13.21 -15.58,19.05 -26.39,14.09 -8.37,-3.99 -9.31,-15.97 -5.01,-21.03 -4.8,5.61 -5.54,14.21 0.15,24.74 -10.71,-5.58 -14,-20.98 -8.53,-30.85 -5.47,5.43 -8.41,19.86 -2.56,36.33 -8.69,-3.21 -14.65,-10.77 -17.88,-21.61 z"
          style="fill:#6B4830 !important;stroke:#1a1008 !important;stroke-width:0.5 !important"/>
    <path d="m 104.3,153.2 c -6.7,1.42 -13.02,8.43 -13.02,16.89 0,8.12 5.96,17.12 16.1,17.76 9.25,0.6 16.5,-4.84 19.73,-12.15 -4.75,5.33 -10.9,6.44 -16.16,5.02 -9.36,-2.61 -12.87,-12.54 -6.65,-27.52 z"
          style="fill:#543620 !important;stroke:#1a1008 !important;stroke-width:0.5 !important"/>
    <path d="m 118.1,144.7 c 7.31,2.37 9.13,10.78 6.59,19.04 -1.26,4.28 -4.4,5.2 -6.59,5.93 6.37,-1.52 9.87,-7.21 10.4,-12.78 0.69,-7.37 -4.68,-13.59 -11.5,-14.51 -8.88,-1.37 -17.36,3.48 -22.67,13.1 5.56,-7.72 13.07,-14.13 23.77,-10.78 z"
          style="fill:#8B6540 !important;stroke:#1a1008 !important;stroke-width:0.5 !important"/>
    <path d="m 62.77,155.3 c 1.57,-4.39 3.56,-5.4 8.42,-6.36 l 6.74,-0.96 c -4.45,-1.06 -6.44,-1.01 -8.88,-0.34 2.64,-3.6 5.68,-4.92 9.73,-4.52 l 4.35,0.82 -6.89,2.81 c 4.41,1.28 8.92,-0.54 12.5,-4.63 -3.89,0.82 -5.56,-1.4 -10.56,-2.22 -6.99,-1.22 -15.41,8.28 -15.41,15.4 z"
          style="fill:#a0785a !important;stroke:#1a1008 !important;stroke-width:0.5 !important"/>
    <path d="m 58.73,167.2 c -0.42,5.32 1.15,8.82 6.01,11.87 -1.72,-4.43 -2.82,-6.8 -2.61,-11.87 1.41,5.02 2.67,6.28 4.28,7.94 0.69,-5.06 -2.45,-7.28 -2.92,-13.75 l -2.19,-3.74 c -0.94,2.51 -2.2,5.22 -2.57,9.55 z"
          style="fill:#5c3a1e !important;stroke:#1a1008 !important;stroke-width:0.5 !important"/>
    <path d="m 41.71,158.4 c 1.1,3.29 3.54,6.41 6.83,7.78 l -0.31,-2.37 c -2.29,-1.47 -4.48,-3.59 -6.52,-5.41 z"
          style="fill:#5c3a1e !important;stroke:#1a1008 !important;stroke-width:0.5 !important"/>
    <path d="m 49.71,124.9 4.4,0.66 4.56,4.13 -1.99,-4.69 c 3.44,0.71 6.39,3.6 7.23,8.92 l 0.21,-5.79 c 1.93,3.79 1.56,9.05 -1.24,13.79 l 0.16,-6.91 -7.35,14.82 -0.59,-10.73 -2.29,5.01 0.15,-10.24 -2.94,3.19 2.29,-7.97 z"
          style="fill:#d4b896 !important;stroke:#1a1008 !important;stroke-width:0.5 !important"/>
    <path d="m 72.61,165.1 c -0.9,4.09 -0.69,7.69 1.02,11.04 l -0.58,-7.56 2.94,10.84 c -1.57,-9.19 0.25,-16.25 6.4,-24.15 -5.26,3.49 -8.45,5.06 -9.78,9.83 z"
          style="fill:#d4b896 !important;stroke:#1a1008 !important;stroke-width:0.5 !important"/>
    <path d="m 16.91,108.1 c 1.05,1.81 2.21,2.58 5.1,2.58 3.49,0 4.7,-1.81 6.11,-3.67 l 1.09,0.68 -3.68,7.11 -2.39,0.67 c -2.69,-0.49 -6.43,-2.25 -6.23,-7.37 z"
          style="fill:#6b4423 !important;stroke:#1a1008 !important;stroke-width:0.5 !important"/>
    <path d="m 25.78,115.4 c 2.34,-1.52 4.12,-4.18 4.96,-8.26 2.79,-1.97 10.29,-1.48 12.58,2.95 1.37,2.9 0.63,4.37 2.82,3.79 1.36,2.27 -3.19,6.55 -8.1,7.86 -4.2,1.12 -9.92,-0.1 -12.26,-6.34 z"
          style="fill:#9C7B5A !important;stroke:#1a1008 !important;stroke-width:0.5 !important"/>
    <path d="m 29.05,118.6 c 4.8,1.66 10.36,0.55 13.9,-2.44"
          style="fill:none !important;stroke:#1a1008 !important;stroke-width:1.5 !important"/>
    <path d="m 46.96,103.1 c 6.37,-0.54 9.16,2.35 13.97,2.11 5.26,-0.29 7.23,-2.16 7.96,-4.43 0.69,-2.32 -1.95,-3.64 -3.17,-1.78 -0.63,1.02 -0.11,1.69 -0.11,1.69 -1.46,-0.2 -2.93,-1.87 -1.36,-3.73 2.13,-2.52 7.92,-2.81 8.56,0.98 1.31,7.87 -5.62,15.09 -18.03,16.01 9.87,-0.3 20.33,-7.2 20.48,-14.91 0.05,-3.74 -1.52,-6.87 -3.04,-9.53 1.83,-0.35 3.87,0.24 5.34,1.76 -3.29,-5.01 -7.45,-4.86 -10.95,-0.48 1.67,-3.34 3.66,-4.6 6,-4.81 -2.94,-1.51 -6.58,-1.02 -8.36,3.07 -1.21,3.12 -2.16,11.14 -9.52,10.8 -4.4,-0.2 -7.94,-0.4 -13.15,2.36 1.68,-0.05 2.73,0.25 5.38,0.89 z"
          style="fill:#a0785a !important;stroke:#1a1008 !important;stroke-width:0.5 !important"/>
    <path d="m 43.37,98.04 c 2.34,-1.52 3.85,-1.32 7.49,-0.6 5.16,1.06 9.35,-2.1 9.35,-8.96 v -3.79 l 1.47,-2.57 c -2.95,1.07 -4.26,-0.74 -8.46,-0.99 -5.16,-0.3 -8.95,3.98 -10.11,8.99 l -2.49,9.4 z"
          style="fill:#4D2D17 !important;stroke:#1a1008 !important;stroke-width:0.5 !important"/>
    <path d="m 47.65,89.52 c 0.58,-3.4 3.27,-4.87 5.96,-4.87 2.7,0 4.32,1.76 4.06,4.42 -0.42,4.44 -3.61,6.05 -6.1,5.65 -2.44,-0.39 -4.28,-1.95 -3.92,-5.2 z"
          style="fill:#1a1008 !important;stroke:#1a1008 !important;stroke-width:0.5 !important"/>
    <path d="m 51.34,88.08 c -0.13,1.18 0.67,1.79 1.47,1.71 1,-0.11 1.48,-0.82 1.45,-1.66 -0.1,-0.96 -0.84,-1.32 -1.63,-1.22 -0.7,0.1 -1.18,0.46 -1.29,1.17 z"
          style="fill:#f5ebd5 !important;stroke:#1a1008 !important;stroke-width:0.5 !important"/>
    <path d="m 43.71,105.7 c 3.53,0.2 7.53,1.21 11.32,3.68 l 3.8,0.82 c -3.04,-4 -7.64,-5.31 -15.12,-4.5 z"
          style="fill:#6b4c3b !important;stroke:#1a1008 !important;stroke-width:0.5 !important"/>
    <path d="m36.96 68.66-11.23 7.92-1.05 14.52 1.52-11 6.95-6.42 2.84-2.46 0.64 4.13-9.38 8.35-0.69 8.12 7.7-7.72-2.34-6.17 6.37-4.43-1.33-4.84z"
          style="fill:#A0785A !important;stroke:#1A1008 !important;stroke-width:.5 !important"/>
    <path d="m22.12 84.52 0.05 6.52 0.95-8.11-1 1.59z"
          style="fill:#A0785A !important;stroke:#1A1008 !important;stroke-width:.5 !important"/>
    <path d="m22.65 100.7c1.26-4.69 3.3-7.06 6.04-9.42-1.47 4.23-3.19 6.94-6.04 9.42z"
          style="fill:#A0785A !important;stroke:#1A1008 !important;stroke-width:.5 !important"/>
    <path d="m27.71 102.4c1.46-5.27 3.9-7.64 6.7-9.76-2.24 4.49-3.71 6.51-6.7 9.76z"
          style="fill:#A0785A !important;stroke:#1A1008 !important;stroke-width:.5 !important"/>
    <path d="m41.33 67.45c0.94-1.66 1.99-2.02 3.82-2.17 2.24-0.2 3.34 0.76 2.66 2.32-0.69 1.61-3.83 1.22-4.15-0.59-0.85 4.33 3.05 4.63 5.94 3.01 3.34-1.81 4.44-3.98 6.53-7.92l0.69 0.1c-2.54 6.02-3.91 8.78-8.47 9.95-3.54 0.96-7.99-0.51-7.02-4.7z"
          style="fill:#A0785A !important;stroke:#1A1008 !important;stroke-width:.5 !important"/>
    <path d="m37.68 90.31c0.74-7.37 3.44-13.59 12.04-14.3 6.01-0.5 7.11-1.7 7.26-5.94l0.64 2.99c0.42 2.85-1.77 4.16-6.47 4.66-7.99 0.81-11.94 5.02-13.47 12.59z"
          style="fill:#A0785A !important;stroke:#1A1008 !important;stroke-width:.5 !important"/>
    <path d="m72.91 109.1c-3.13 4.49-6.62 7.83-8.8 8.99 2.94-1.11 4.93-1.7 6.15-1.51-1.21 3.12-1.32 6.16-0.79 10 0.74-5.9 2.98-8.71 5.63-11.66 3.29-3.74 4.96-7.87 4.33-12.83-0.9 4.13-2.62 2.99-6.52 7.01z"
          style="fill:#5C3A1E !important;stroke:#1A1008 !important;stroke-width:.5 !important"/>
    <path d="m77.81 121.6c2.04-5.27 8.14-10.38 9.86-16.65l0.8-7.66c2.64 6.86 0.21 13.67-5.05 19.94-4.45 5.32-5.71 12.99-1.1 17.42 3.89 3.79 9.99 1.77 11.3-2.41 1.42-4.8-0.57-8.11-4.41-8.31-2.8-0.15-3.74 2.61-3.1 4.83 0.68 1.96 3.87 2.01 3.87-0.66"
          style="fill:none !important;stroke:#21140b !important;stroke-width:1.5 !important"/>
</svg>