<svg xmlns="http://www.w3.org/2000/svg" width="200" height="230" viewBox="30 0 200 260"
     style="background:transparent !important">
    <defs>
        <path id="leaf"
              d="m50.22 237.9c2.97-10.19 8.26-26 12.04-28.9 4.8 2 8.53 3.56 18.84 4.39 18.96 0.47 29.97-1.18 47.61-7.5 18.73-6.29 32.31-16.8 46.44-36.81 9.26-14.3 14.74-29.72 19.79-47.32 8.68-31.43 12.07-68.03 10.11-92.48l-1.3 0.66c-4.5 10.01-13.84 24.1-27.47 35.1-9.86 8.83-23.56 14.49-41.51 22.56-21.39 9.69-40.68 21.03-54.41 34.24-1.14 1.05-2.25 2.12-3.29 3.19-12.39 12.63-16.91 22.23-20.98 33.72-2.82 7.58-3.37 20.62-1.46 32.71 1.1 6.83 3.34 8.93 0.58 15.46-3.53 8.24-13.79 29.25-20.5 47.85h12.2c0.53-4.86 1.29-9.7 3.31-16.87z"/>
    </defs>
    <use href="#leaf" fill="none" stroke="#ffffff" stroke-width="8" stroke-linejoin="round"
         style="fill:none !important;stroke:#ffffff !important;stroke-width:8 !important"/>
    <use href="#leaf" fill="#3DBE87" stroke="none" style="fill:#3DBE87 !important;stroke:none !important"/>
</svg>
