<svg width="200" height="200" fill="none" inkscape:version="1.2.2 (b0a8486541, 2022-12-01)"
     sodipodi:docname="ratatoskr_logo.svg" version="1.1" viewBox="0 0 200 200" xmlns="http://www.w3.org/2000/svg"
     xmlns:inkscape="http://www.inkscape.org/namespaces/inkscape"
     xmlns:sodipodi="http://sodipodi.sourceforge.net/DTD/sodipodi-0.dtd">
    <sodipodi:namedview bordercolor="#000000" borderopacity="0.25" inkscape:current-layer="svg200"
                        inkscape:cx="92.192882" inkscape:cy="100.22962" inkscape:deskcolor="#d1d1d1"
                        inkscape:pagecheckerboard="0" inkscape:pageopacity="0.0" inkscape:showpageshadow="2"
                        inkscape:window-height="1008" inkscape:window-maximized="1" inkscape:window-width="1920"
                        inkscape:window-x="0" inkscape:window-y="0" inkscape:zoom="4.355" pagecolor="#ffffff"
                        showgrid="false"/>
    <g stroke="#1A1008" stroke-miterlimit="10" stroke-width=".5">
        <path d="m184.7 133.3c-3.85 9.3-4.7 9.83-12.05 13.33 13.07-15.31 14.35-32.25 3.12-53.81 1.1 5.76 1.21 8.47 0.16 14.28-1.51-14.6-5.8-22.22-24.68-34.1l3.64 6.8c-6.99-6.27-14.49-13.78-13.23-23.17 0.74-5.64 4.81-8.88 8.41-8.1 4.87 1.11 4.87 6.22 1.44 8.39-1.93 1.16-3.65 0.44-5.21-2.16-0.75 4.38 1.21 8.19 6.75 10.56 4.15 1.81 8.62 1.41 12.98-0.1-2.74 3.89-5.38 4.9-8.61 6.01 13.61 0 25.23-10.95 25.23-23.81 0-11.38-5.74-20.65-12.83-25.59l12 10.29c-6.05-15.65-19.7-26.35-37.06-25.8-11.01 0.37-16.31 2.08-24.69 6.49 4.28-5.01 8.89-6.63 15.1-8.11-18.11 0.74-34.07 9.4-40.12 25.48l2.64-6.75c-8.75 11.68-8.39 24.22-4.36 37.67-4.18-3.98-4.39-7.03-5.08-16.37-3 12.45 0.26 32.69 19.15 52.13-12.04-1.07-18.25-6.11-21.5-13.94-2.14-5.33-2.78-8.15-5.67-11.5 4.67-10.42 0.72-16.15-0.18-23.77-0.3-2.73 0.17-6.38 3.66-12.86l-5.85 6.65-1.21-9.52c-1.56 6.32-2.77 8.08-8.62 14.35-5.16 5.12-6.85 8.45-8.36 12.85-5.15-0.82-8.25-0.77-16.85 0.31l-3.48-13.16c-0.54-2.98 0.41-6.27 1.62-10.65l-5.1 7.15-0.15-9.34-1.94 7.57c-1.26 3.12-5.21 7.29-6.42 12.73-0.68 3.19-0.68 8.09 0.16 13.66-4.35 6.03-10.4 11.88-11.29 15.33-0.99 3.87 0.47 8.05 0.47 12.28 0 3.99-2.48 9.99-1.79 15.22 0.64 5 4.12 8.7 7.17 9.97 3.29 1.34 4.39 4.05 10.08 4.93 4.61 0.7 6.8 0 10.04 0 2.64 1.47 1.27 7.74-2.22 12.95l2.06-0.93c-4.72 7.05-6.38 11.84-5.74 20.79 0.64 8.12 8.86 17.17 18.06 18.23l-0.69-2.95 1.57 1.86 4.56 6.33 2.19 2.51-0.58-3.74c3.79 5.01 6.43 8 11.35 10.82l-3.19-8.95c7.35 11.01 16.55 14.01 28.59 13.28 10.71-0.68 19.22-2.5 32.08-13.7 12.86 4.63 28.56-0.83 39.27-13.03-4.56 2.17-6.55 2.49-12.87 1.61 14.62-4.58 25.33-17.03 28.07-36.9z"
              fill="#1A1008"/>
        <path d="m29.21 67.04c-1.09-6.9-0.72-13.23 3.83-20.07l4.06-5.98 0.91-5.38 1.13-1.85c-1.79 5.01-2.04 10.23-1.46 13.35l3.24 12.6c-4.41 1.1-7.99 3.32-11.71 7.33z"
              fill="url(#o)"/>
        <path d="m100.1 26.98c7.3-11.24 17.49-15.92 18.74-16.33-7.04 6.27-11.75 12.97-13.07 25.57 6.37-13.16 20.83-27.63 42.93-27.09 9.49 0.25 18.53 5.63 22.43 9.63-7.96-5.28-15.2-7-24-5.24l-7.14 1.01 7.65-0.44c-13.44 2.22-27.45 5.92-36.84 19.62-3.6 4.85-5.74 8.46-7.68 15.21-1.1-11.29 0-16.76 5.26-28.86-6.47 7.1-13.46 18.24-11.08 34.97-4.03-10.79-1.84-20.35 2.8-28.05z"
              fill="url(#i)"/>
        <path d="m102.7 51.12c2.2-15.92 13.87-26.97 25.54-28.37-9.39 8.71-11.59 16.78-9.7 30.43-5.1-9.97-2.05-19.16-2.05-19.16s-9.99 9.72-8.83 24.87c0.89 12.33 5.5 21.13 17.81 29.15l0.31 4.09c-11.86-5.89-25.73-18.97-23.08-41.01z"
              fill="url(#h)"/>
        <path d="m122.1 58.89c-8.69-12.53-3.7-28.56 7.58-38.11 2.49-2.27 5.49-3.2 8.18-3.69-13.75 1.06-27.98 11.96-28.51 27.11-0.31 8.96 4.06 15.47 11.65 20.91-2.13-1.01-3.18-1.5-5.01-2.37 1.72 3.22 2.88 4.54 2.19 8.09-0.47 2.58-2.72 3.79-2.72 3.79 1.93 2.37 4.27 2.67 5.69-0.5 1.37-3.24 0.06-6.99-3.08-10.21 3.08 0.54 6.78 2.3 10.51 4.52-2.84-4.32-4.68-6.62-6.48-9.54z"
              fill="url(#g)"/>
        <path d="m147.7 11.96c-14.01 1.05-33.11 10.95-35.6 23.65 4.12-7.72 13.31-13.84 27.63-15.6 8.37-5.91 18.19-6.15 27.1-3.09-5-3.91-9.91-5.56-19.13-4.96z"
              fill="#5C3A1E"/>
        <path d="m178.6 44.19c-1.37-12.9-12.32-25.38-26.6-26.25-13.03-0.82-27.86 10.19-28.07 27.71-0.16 9.5 2.98 16.36 9.51 22.47-5.04-9.78-3.42-19.01 4.96-23.01 6.42-3.04 11.47-0.92 13.71 1-5.31-4.09-14.06-4.53-18.67 0 3.84-7.86 11.64-9.2 17.96-7.3 6.21 1.95 7.01 8.97 6.58 11.2 1.26-5.16-0.83-11-7.2-13.89 7.36-0.2 12.02 5.6 13.18 10.34-0.26-9.1-10.14-15.37-19.72-13.76-11.82 2.07-15.47 12.12-16.16 16.41 0.32-13.45 9.97-19.19 19.01-18.99 10.71 0.2 18.93 9.82 19.51 18.5 0.42 6.32-4.53 11.49-8.99 11.09 2.95-2.82 4.67-6.31 3.98-12.59 5.21 4.59 2.42 13.99-5.59 16.35-3.24 0.97-7.19-1.25-8.29-3.31 1.42 4.8 7.57 7.07 12.29 5.85 8.48-2.32 12.27-9.69 10.23-19.8l-1.32-5.43c7.8 6.27 5.77 18.1 0.11 25.23 6.8-3.84 10.8-11.15 9.58-21.82z"
              fill="url(#f)"/>
    </g>
    <g fill="#C49A6C" stroke="#1A1008" stroke-miterlimit="10" stroke-width=".5">
        <path d="m157.5 26.2c3.48-0.3 5.67 0.61 9.15 2.55-2.64-0.34-5.08-0.76-9.15-2.55z"/>
        <path d="m163.8 31.05c3.14 0.59 5.38 1.7 8.18 4.12-2.8-0.68-4.68-1.56-8.18-4.12z"/>
        <path d="m137.1 27.87c4.08-2.37 7.28-3.53 12.9-3.15 7.35 0.54 13.35 6.43 15.99 12.7-3.73-5.31-9.59-9.9-17.19-10.1-5.74-0.14-8.88 1.43-12.82 4.19l1.12-3.64z"/>
    </g>
    <g stroke="#1A1008" stroke-miterlimit="10" stroke-width=".5">
        <path d="m92.98 68.52c2.24 4.85 4.43 7.92 13.96 11.81l-2.79-5.49c-4.86-1.12-7.9-2.93-11.17-6.32z"
              fill="#5C3A1E"/>
        <path d="m103.8 82.04 5.69 2.27 1.05 5.38c-3.09-1.91-5.38-3.77-6.74-7.65z" fill="#A0785A"/>
        <path d="m114 87.89 3.03 5.84 13.7 11c-7.04-4.58-13-9.17-16.73-16.84z" fill="#5C3A1E"/>
    </g>
    <g fill="#7A5230" stroke="#1A1008" stroke-miterlimit="10" stroke-width=".5">
        <path d="m157.4 81.85c7.2 5.43 12.61 14.43 12.3 27.54l-1.67-2.77c-1.76-7.21-4.8-15.37-10.63-24.77z"/>
        <path d="m179.5 108.1c0 7.92-4.5 19.46-8.36 24.05 2.04-4.59 3.49-8.14 4.8-11.79 1.8-4.85 2.66-8.19 3.56-12.26z"/>
        <path d="m171.3 116.5c0.85 7.01-1.28 18.01-7.55 27.4l0.58 2.22c6.86-10.23 9.56-20.81 6.97-29.62z"/>
        <path d="m161 164.2c4.61-3.07 8.6-7.12 10.95-11.34l-6.21 1.61c4.56-4.38 7.6-6.9 11.33-9.89-4.05 10.08-9.46 16.11-16.07 19.62z"/>
        <path d="m143.2 171.7c5.77 1.56 8.81 2.53 11.95 2.69-7.19 3.55-15.4 4.33-21.09 2.76 3.64-0.05 6.29-0.49 11.33-2.2l-2.19-3.25z"/>
    </g>
    <g stroke="#1A1008" stroke-miterlimit="10">
        <g stroke-width=".5">
            <path d="m60.06 64.05c1.15-7.01 5.46-13.02 9.77-16.41l5.33-5.33c-0.9 4.1 1.59 7.84 2.75 11.41 1.56 5.16 1.72 9.75-1.82 17.21-1.15 2.64 1.04 6.29-0.38 12.23l-2.09-0.73c-0.69-5.27-4.58-7.98-4.05-11.81-3.49-2.51-4.28-5.51-4.28-9.61l-5.23 3.04z"
                  fill="url(#e)"/>
            <path d="m75.11 45.71c-4.95 5.51-10.32 13.08-8.5 22.41l1.22 4.43c1.42-5.79 3.14-10.94 6.33-14.94l-0.95 7.56 3.14-5.06c1.21-2.16 0.52-9.85-1.24-14.4z"
                  fill="#6B4423"/>
            <path d="m128.4 69.82c-4.62 16.53 0.52 34.47 9.37 43.67 3.04 3.22 5.74 5.34 9.03 7.1l1.47-5.74c-9.87-7.1-16.07-17.8-15.76-36.94 5.43 2.93 11.04 7.98 13.79 13.4l3.6 0.82c-3.49-9.99-11.19-17.14-21.5-22.31z"
                  fill="#C49A6C"/>
            <path d="m135.1 91.21 1.93 4.95c16.81 4.85 28.76 11.12 29.34 28.45 0.45 13.16-11.13 28.5-24.18 32l-0.25 2.71c14.18-3.89 27.68-17.39 27.53-34.91-0.21-17.18-11.47-28.13-34.37-33.2z"
                  fill="#A67C52"/>
            <path d="m137.8 98.93c2.95 4.13 5.78 7.08 9.47 9.69 0.59-3.89 0.25-6.45 0.25-6.45 1.56 1.11 3.13 2.08 4.69 2.95 1.57 11.01-3.53 24.84-9.2 32.41l-1.27-1.47c5.26-8.34 6.78-15.54 6.34-23.15-3.9-3.5-7.7-7.29-10.28-13.98z"
                  fill="url(#d)"/>
            <path d="m154.9 120.3-1.83 4.23c3.04 2.95 5.13 6.07 5.66 11.97l3.19-6.42c-0.69-3.89-3.13-7.18-7.02-9.78z"
                  fill="url(#c)"/>
            <path d="m153.3 129.6-1.89 2.59-1.47-1.11c-1.15 6.71-2.66 12.04-4.9 17.31 4.4-2.22 8.91-6.6 10.78-10.59 0.32-3.65 0.16-5.41-2.52-8.2z"
                  fill="url(#b)"/>
            <path d="m163.2 146.8c-7.04 8.26-9.83 18.78-24.74 21.8v1.61c13.61-2.01 21.61-11.62 24.74-23.41z"
                  fill="#6B4C3B"/>
            <path d="m93.35 95.14c5.26 8.31 11.1 12.04 21.76 16.79l1.1 2.98c-9.43-2.22-18.1-8.59-24.05-19.77h1.19z"
                  fill="#6B4423"/>
            <path d="m105 114.2 11.27 3.89 1.37 4.85-3-2.94-1.88 0.67 2.29 9.21-5.25-1.01c-0.36-5.12-1.57-10.49-4.8-14.67z"
                  fill="#8B5E3C"/>
            <path d="m104.2 135.2c4.56-2.22 11.41-2.32 17.56 1.17 6.98 4.04 13.35 10.61 15.07 19.27l1.47-6.86c-2.24-11-12.16-18.01-24.07-18.01h-5.28l-4.75 4.43z"
                  fill="#6B4423"/>
            <path d="m116.1 104.2c11 4.96 21.81 13.91 22.73 42.12-3.09-12.29-7.7-21.14-15.76-26.3l5.2 1.11-1.26-3.29-3.94 0.27c-1.05-4.59-3.19-10.02-10.54-15.7l3.57 1.79z"
                  fill="#A0785A"/>
            <path d="m126 124.9c1.72 2.12 3.65 0.86 3.4-0.95-0.26-1.37-1.42-1.77-2.16-1.82 1-0.63 2.52-0.38 3.16 0.54 1.41 2.18-0.16 6.12-3.8 4.4l-0.6-2.17z"
                  fill="#A0785A"/>
            <path d="m40.15 156.4c0.63-3.89 1.9-8.48 4.09-11.88l-0.58 9.51 5.26 9 0.16 6.17c-3.95-2.46-8-6.6-8.93-12.8z"
                  fill="#6B4C3B"/>
            <path d="m52.31 159.9c-2.64-6.27-5.23-13.13-4.92-21.15l-1.57 6.22 1.05-9.99 2.38-4.13-2.24 2.42c-0.58-4.33-0.94-6.1-2.1-9.16l6.1-1.71 8.72-0.82c6.71-0.39 8.95 4.57 9.48 9.68 0.58 5.85-1.96 7.46-5.2 12.2-3.54 4.59-8.77 9.6-11.7 16.44z"
                  fill="url(#a)"/>
            <path d="m68.89 160.8c1.05-4.69 5.31-5.3 9.21-7.27 8.52-4.13 18.34-10.72 20.17-18.79 1.36-6.33-1.58-13.79-9.64-13.39l3.48-3.08 4.5-7.51c7.3 5.27 10.44 16.28 5.53 27.87 5.11-2.46 12.91-2.55 18.12 1.09 9.09 6.47 11.69 17.21 8.15 28.44-4.26 13.21-15.58 19.05-26.39 14.09-8.37-3.99-9.31-15.97-5.01-21.03-4.8 5.61-5.54 14.21 0.15 24.74-10.71-5.58-14-20.98-8.53-30.85-5.47 5.43-8.41 19.86-2.56 36.33-8.69-3.21-14.65-10.77-17.88-21.61l0.7-9.03z"
                  fill="url(#n)"/>
            <path d="m104.3 153.2c-6.7 1.42-13.02 8.43-13.02 16.89 0 8.12 5.96 17.12 16.1 17.76 9.25 0.6 16.5-4.84 19.73-12.15-4.75 5.33-10.9 6.44-16.16 5.02-9.36-2.61-12.87-12.54-6.65-27.52z"
                  fill="url(#m)"/>
            <path d="m118.1 144.7c7.31 2.37 9.13 10.78 6.59 19.04-1.26 4.28-4.4 5.2-6.59 5.93 6.37-1.52 9.87-7.21 10.4-12.78 0.69-7.37-4.68-13.59-11.5-14.51-8.88-1.37-17.36 3.48-22.67 13.1 5.56-7.72 13.07-14.13 23.77-10.78z"
                  fill="url(#l)"/>
            <path d="m62.77 155.3c1.57-4.39 3.56-5.4 8.42-6.36l6.74-0.96c-4.45-1.06-6.44-1.01-8.88-0.34 2.64-3.6 5.68-4.92 9.73-4.52l4.35 0.82-6.89 2.81c4.41 1.28 8.92-0.54 12.5-4.63-3.89 0.82-5.56-1.4-10.56-2.22-6.99-1.22-15.41 8.28-15.41 15.4z"
                  fill="#A0785A"/>
            <path d="m58.73 167.2c-0.42 5.32 1.15 8.82 6.01 11.87-1.72-4.43-2.82-6.8-2.61-11.87 1.41 5.02 2.67 6.28 4.28 7.94 0.69-5.06-2.45-7.28-2.92-13.75l-2.19-3.74c-0.94 2.51-2.2 5.22-2.57 9.55z"
                  fill="#5C3A1E"/>
            <path d="m41.71 158.4c1.1 3.29 3.54 6.41 6.83 7.78l-0.31-2.37c-2.29-1.47-4.48-3.59-6.52-5.41z"
                  fill="#5C3A1E"/>
            <path d="m49.71 124.9 4.4 0.66 4.56 4.13-1.99-4.69c3.44 0.71 6.39 3.6 7.23 8.92l0.21-5.79c1.93 3.79 1.56 9.05-1.24 13.79l0.16-6.91-7.35 14.82-0.59-10.73-2.29 5.01 0.15-10.24-2.94 3.19 2.29-7.97-2.6-4.19z"
                  fill="#D4B896"/>
            <path d="m72.61 165.1c-0.9 4.09-0.69 7.69 1.02 11.04l-0.58-7.56 2.94 10.84c-1.57-9.19 0.25-16.25 6.4-24.15-5.26 3.49-8.45 5.06-9.78 9.83z"
                  fill="#D4B896"/>
            <path d="m16.91 108.1c1.05 1.81 2.21 2.58 5.1 2.58 3.49 0 4.7-1.81 6.11-3.67l1.09 0.68-3.68 7.11-2.39 0.67c-2.69-0.49-6.43-2.25-6.23-7.37z"
                  fill="#6B4423"/>
            <path d="m25.78 115.4c2.34-1.52 4.12-4.18 4.96-8.26 2.79-1.97 10.29-1.48 12.58 2.95 1.37 2.9 0.63 4.37 2.82 3.79 1.36 2.27-3.19 6.55-8.1 7.86-4.2 1.12-9.92-0.1-12.26-6.34z"
                  fill="url(#k)"/>
        </g>
        <path d="m29.05 118.6c4.8 1.66 10.36 0.55 13.9-2.44" stroke-width="1.5"/>
        <g stroke-width=".5">
            <path d="m46.96 103.1c6.37-0.54 9.16 2.35 13.97 2.11 5.26-0.29 7.23-2.16 7.96-4.43 0.69-2.32-1.95-3.64-3.17-1.78-0.63 1.02-0.11 1.69-0.11 1.69-1.46-0.2-2.93-1.87-1.36-3.73 2.13-2.52 7.92-2.81 8.56 0.98 1.31 7.87-5.62 15.09-18.03 16.01 9.87-0.3 20.33-7.2 20.48-14.91 0.05-3.74-1.52-6.87-3.04-9.53 1.83-0.35 3.87 0.24 5.34 1.76-3.29-5.01-7.45-4.86-10.95-0.48 1.67-3.34 3.66-4.6 6-4.81-2.94-1.51-6.58-1.02-8.36 3.07-1.21 3.12-2.16 11.14-9.52 10.8-4.4-0.2-7.94-0.4-13.15 2.36 1.68-0.05 2.73 0.25 5.38 0.89z"
                  fill="#A0785A"/>
            <path d="m43.37 98.04c2.34-1.52 3.85-1.32 7.49-0.6 5.16 1.06 9.35-2.1 9.35-8.96v-3.79l1.47-2.57c-2.95 1.07-4.26-0.74-8.46-0.99-5.16-0.3-8.95 3.98-10.11 8.99l-2.49 9.4 2.75-1.48z"
                  fill="url(#j)"/>
            <path d="m47.65 89.52c0.58-3.4 3.27-4.87 5.96-4.87 2.7 0 4.32 1.76 4.06 4.42-0.42 4.44-3.61 6.05-6.1 5.65-2.44-0.39-4.28-1.95-3.92-5.2z"
                  fill="#1A1008"/>
            <path d="m51.34 88.08c-0.13 1.18 0.67 1.79 1.47 1.71 1-0.11 1.48-0.82 1.45-1.66-0.1-0.96-0.84-1.32-1.63-1.22-0.7 0.1-1.18 0.46-1.29 1.17z"
                  fill="#F5EBD5"/>
            <path d="m43.71 105.7c3.53 0.2 7.53 1.21 11.32 3.68l3.8 0.82c-3.04-4-7.64-5.31-15.12-4.5z" fill="#6B4C3B"/>
        </g>
    </g>
    <g fill="#A0785A" stroke="#1A1008" stroke-miterlimit="10" stroke-width=".5">
        <path d="m36.96 68.66-11.23 7.92-1.05 14.52 1.52-11 6.95-6.42 2.84-2.46 0.64 4.13-9.38 8.35-0.69 8.12 7.7-7.72-2.34-6.17 6.37-4.43-1.33-4.84z"/>
        <path d="m22.12 84.52 0.05 6.52 0.95-8.11-1 1.59z"/>
        <path d="m22.65 100.7c1.26-4.69 3.3-7.06 6.04-9.42-1.47 4.23-3.19 6.94-6.04 9.42z"/>
        <path d="m27.71 102.4c1.46-5.27 3.9-7.64 6.7-9.76-2.24 4.49-3.71 6.51-6.7 9.76z"/>
        <path d="m41.33 67.45c0.94-1.66 1.99-2.02 3.82-2.17 2.24-0.2 3.34 0.76 2.66 2.32-0.69 1.61-3.83 1.22-4.15-0.59-0.85 4.33 3.05 4.63 5.94 3.01 3.34-1.81 4.44-3.98 6.53-7.92l0.69 0.1c-2.54 6.02-3.91 8.78-8.47 9.95-3.54 0.96-7.99-0.51-7.02-4.7z"/>
        <path d="m37.68 90.31c0.74-7.37 3.44-13.59 12.04-14.3 6.01-0.5 7.11-1.7 7.26-5.94l0.64 2.99c0.42 2.85-1.77 4.16-6.47 4.66-7.99 0.81-11.94 5.02-13.47 12.59z"/>
    </g>
    <path d="m72.91 109.1c-3.13 4.49-6.62 7.83-8.8 8.99 2.94-1.11 4.93-1.7 6.15-1.51-1.21 3.12-1.32 6.16-0.79 10 0.74-5.9 2.98-8.71 5.63-11.66 3.29-3.74 4.96-7.87 4.33-12.83-0.9 4.13-2.62 2.99-6.52 7.01z"
          fill="#5C3A1E" stroke="#1A1008" stroke-miterlimit="10" stroke-width=".5"/>
    <path d="m77.81 121.6c2.04-5.27 8.14-10.38 9.86-16.65l0.8-7.66c2.64 6.86 0.21 13.67-5.05 19.94-4.45 5.32-5.71 12.99-1.1 17.42 3.89 3.79 9.99 1.77 11.3-2.41 1.42-4.8-0.57-8.11-4.41-8.31-2.8-0.15-3.74 2.61-3.1 4.83 0.68 1.96 3.87 2.01 3.87-0.66"
          stroke="#1A1008" stroke-miterlimit="10" stroke-width="1.5"/>
    <defs>
        <linearGradient id="o" x1="34.3" x2="34.3" y1="33.42" y2="67.04" gradientUnits="userSpaceOnUse">
            <stop stop-color="#1A1008" offset="0"/>
            <stop stop-color="#2C1A0E" offset="1"/>
        </linearGradient>
        <linearGradient id="i" x1="136.5" x2="100.4" y1="6.257" y2="57.2" gradientUnits="userSpaceOnUse">
            <stop stop-color="#2C1A0E" offset="0"/>
            <stop stop-color="#5C3A1E" offset="1"/>
        </linearGradient>
        <linearGradient id="h" x1="115.2" x2="115.2" y1="22.5" y2="92.13" gradientUnits="userSpaceOnUse">
            <stop stop-color="#C49A6C" offset="0"/>
            <stop stop-color="#7A5230" offset="1"/>
        </linearGradient>
        <linearGradient id="g" x1="123.6" x2="123.6" y1="16.91" y2="76.53" gradientUnits="userSpaceOnUse">
            <stop stop-color="#3D2010" offset="0"/>
            <stop stop-color="#6B4423" offset="1"/>
        </linearGradient>
        <linearGradient id="f" x1="153.1" x2="153.1" y1="17.8" y2="66.74" gradientUnits="userSpaceOnUse">
            <stop stop-color="#C49A6C" offset="0"/>
            <stop stop-color="#3D2010" offset="1"/>
        </linearGradient>
        <linearGradient id="e" x1="70.86" x2="70.86" y1="41.96" y2="83.16" gradientUnits="userSpaceOnUse">
            <stop stop-color="#3D2010" offset="0"/>
            <stop stop-color="#6B4423" offset="1"/>
        </linearGradient>
        <linearGradient id="d" x1="145.2" x2="145.2" y1="98.93" y2="137.5" gradientUnits="userSpaceOnUse">
            <stop stop-color="#C49A6C" offset="0"/>
            <stop stop-color="#6B4423" offset="1"/>
        </linearGradient>
        <linearGradient id="c" x1="157.2" x2="157.2" y1="120.3" y2="136.5" gradientUnits="userSpaceOnUse">
            <stop stop-color="#6B4C3B" offset="0"/>
            <stop stop-color="#A0785A" offset="1"/>
        </linearGradient>
        <linearGradient id="b" x1="150.6" x2="150.6" y1="129.6" y2="148.4" gradientUnits="userSpaceOnUse">
            <stop stop-color="#6B4423" offset="0"/>
            <stop stop-color="#5C3A1E" offset="1"/>
        </linearGradient>
        <linearGradient id="a" x1="57.13" x2="57.13" y1="121.5" y2="159.9" gradientUnits="userSpaceOnUse">
            <stop stop-color="#A67C52" offset="0"/>
            <stop stop-color="#C49A6C" offset="1"/>
        </linearGradient>
        <linearGradient id="n" x1="99.52" x2="99.52" y1="110.7" y2="190.9" gradientUnits="userSpaceOnUse">
            <stop stop-color="#A0785A" offset="0"/>
            <stop stop-color="#1A1008" offset="1"/>
        </linearGradient>
        <linearGradient id="m" x1="107.2" x2="107.2" y1="152.9" y2="183.7" gradientUnits="userSpaceOnUse">
            <stop stop-color="#3D2010" offset="0"/>
            <stop stop-color="#6B4C3B" offset="1"/>
        </linearGradient>
        <linearGradient id="l" x1="111" x2="111" y1="142.1" y2="170.2" gradientUnits="userSpaceOnUse">
            <stop stop-color="#C49A6C" offset="0"/>
            <stop stop-color="#3D2010" offset="1"/>
        </linearGradient>
        <linearGradient x1="111.7" x2="111.7" y1="149.3" y2="181.4" gradientUnits="userSpaceOnUse">
            <stop stop-color="#C49A6C" offset="0"/>
            <stop stop-color="#A67C52" offset="1"/>
        </linearGradient>
        <linearGradient id="k" x1="36.15" x2="36.15" y1="105.7" y2="122.2" gradientUnits="userSpaceOnUse">
            <stop stop-color="#9C7B5A" offset="0"/>
            <stop stop-color="#9C7B5A" stop-opacity=".62" offset="1"/>
        </linearGradient>
        <linearGradient id="j" x1="51.18" x2="51.18" y1="80.92" y2="98.2" gradientUnits="userSpaceOnUse">
            <stop stop-color="#3D2010" offset="0"/>
            <stop stop-color="#5C3A1E" offset="1"/>
        </linearGradient>
    </defs>
</svg>
